<?xml version="1.0" encoding="utf-8"?>
<!-- Generator: Adobe Illustrator 19.0.0, SVG Export Plug-In . SVG Version: 6.00 Build 0)  -->
<svg version="1.1" id="OBJECTS" xmlns="http://www.w3.org/2000/svg" xmlns:xlink="http://www.w3.org/1999/xlink" x="0px" y="0px"
	 viewBox="-265 357 80 80" style="enable-background:new -265 357 80 80;" xml:space="preserve">
<path d="M-260.7,390l16.6-16.6v22.9c0,0.3,0,0.6,0,0.9c0,10.6,8.6,19.2,19.2,19.2s19.2-8.6,19.2-19.2c-0.1-10.6-8.7-19.2-19.3-19.2
	c-3.3,0-6.3,0.8-9,2.3v-17l2-2c3.8-3.8,10.1-3.8,14,0l28.7,28.7c3.8,3.8,3.8,10.1,0,14l-28.7,28.7c-3.8,3.8-10.1,3.8-14,0
	l-28.7-28.7C-264.6,400.1-264.6,393.9-260.7,390L-260.7,390z M-225,388.2c-5,0-9,4-9,9s4,9,9,9s9-4,9-9S-220,388.2-225,388.2z"/>
</svg>
