<?xml version="1.0" encoding="utf-8"?>
<!-- Generator: Adobe Illustrator 19.0.0, SVG Export Plug-In . SVG Version: 6.00 Build 0)  -->
<svg version="1.1" id="OBJECTS" xmlns="http://www.w3.org/2000/svg" xmlns:xlink="http://www.w3.org/1999/xlink" x="0px" y="0px"
	 viewBox="-209 211 80 80" style="enable-background:new -209 211 80 80;" xml:space="preserve">
<style type="text/css">
	.st0{fill:#FFFFFF;}
</style>
<g>
	<g>
		<path class="st0" d="M-204.7,244l16.6-16.6v22.9c0,0.3,0,0.7,0,0.9c0,10.5,8.5,19.2,19.2,19.2c10.7,0,19.2-8.5,19.2-19.2
			c-0.1-10.5-8.7-19.2-19.2-19.2c-3.3,0-6.3,0.8-8.9,2.2v-17l2-2c3.8-3.8,10.1-3.8,13.9,0l28.7,28.7c3.8,3.8,3.8,10.1,0,13.9
			l-28.7,28.7c-3.8,3.8-10.1,3.8-13.9,0l-28.7-28.7C-208.6,254.2-208.6,247.8-204.7,244L-204.7,244z M-169,242.2
			c-5,0-8.9,3.9-8.9,8.9c0,5,3.9,8.9,8.9,8.9c5,0,8.9-3.9,8.9-8.9C-160.1,246.3-164,242.2-169,242.2z"/>
	</g>
</g>
</svg>
